<svg width="16" height="15" viewBox="0 0 16 15" fill="none" xmlns="http://www.w3.org/2000/svg">
<path d="M1.78175 14.795C1.5373 14.795 1.33203 14.7117 1.16591 14.545C0.999804 14.3794 0.916748 14.1742 0.916748 13.9292V4.82666C0.916748 4.58222 0.999804 4.37666 1.16591 4.20999C1.33258 4.04444 1.53814 3.96166 1.78258 3.96166H4.25008V1.49333C4.25008 1.24888 4.33314 1.04333 4.49925 0.87666C4.66591 0.711104 4.87147 0.628326 5.11591 0.628326H10.8851C11.1295 0.628326 11.3348 0.711382 11.5009 0.877493C11.667 1.0436 11.7501 1.24916 11.7501 1.49416V7.29416H14.2184C14.4629 7.29416 14.6681 7.37749 14.8342 7.54416C15.0004 7.71027 15.0834 7.91583 15.0834 8.16083V13.9292C15.0834 14.1736 15.0004 14.3792 14.8342 14.5458C14.6676 14.7119 14.462 14.795 14.2176 14.795H9.25008V11.4617H6.75008V14.795H1.78175ZM1.75008 13.9617H4.25008V11.4617H1.75008V13.9617ZM1.75008 10.6283H4.25008V8.12833H1.75008V10.6283ZM1.75008 7.29499H4.25008V4.79499H1.75008V7.29499ZM5.08342 10.6283H7.58342V8.12833H5.08342V10.6283ZM5.08342 7.29499H7.58342V4.79499H5.08342V7.29499ZM5.08342 3.96166H7.58342V1.46166H5.08342V3.96166ZM8.41675 10.6283H10.9167V8.12833H8.41675V10.6283ZM8.41675 7.29499H10.9167V4.79499H8.41675V7.29499ZM8.41675 3.96166H10.9167V1.46166H8.41675V3.96166ZM11.7501 13.9617H14.2501V11.4617H11.7501V13.9617ZM11.7501 10.6283H14.2501V8.12833H11.7501V10.6283Z" fill="black"/>
</svg>
