<svg width="14" height="16" viewBox="0 0 14 16" fill="none" xmlns="http://www.w3.org/2000/svg">
<path d="M11.5 0.5H2.5C2.10218 0.5 1.72064 0.658035 1.43934 0.93934C1.15804 1.22064 1 1.60218 1 2V14C1 14.3978 1.15804 14.7794 1.43934 15.0607C1.72064 15.342 2.10218 15.5 2.5 15.5H11.5C11.8978 15.5 12.2794 15.342 12.5607 15.0607C12.842 14.7794 13 14.3978 13 14V2C13 1.60218 12.842 1.22064 12.5607 0.93934C12.2794 0.658035 11.8978 0.5 11.5 0.5Z" stroke="black" stroke-linecap="round" stroke-linejoin="round"/>
<path d="M4.75 11L5.011 10.82C6.10975 10.0603 7.891 10.0603 8.989 10.82L9.25 11M4 4.25H4.0075M10 4.25H10.0075M7 4.25H7.0075M7 7.25H7.0075M10 7.25H10.0075M4 7.25H4.0075M5.5 15.5V10.625M8.5 10.625V15.5" stroke="black" stroke-linecap="round" stroke-linejoin="round"/>
</svg>
