<svg width="18" height="16" viewBox="0 0 18 16" fill="none" xmlns="http://www.w3.org/2000/svg">
<path d="M6.5025 2.75C6.5025 2.08762 6.76563 1.45238 7.234 0.984003C7.70237 0.515631 8.33762 0.252502 9 0.252502C9.66238 0.252502 10.2976 0.515631 10.766 0.984003C11.2344 1.45238 11.4975 2.08762 11.4975 2.75C11.4975 3.41238 11.2344 4.04763 10.766 4.516C10.2976 4.98437 9.66238 5.2475 9 5.2475C8.33762 5.2475 7.70237 4.98437 7.234 4.516C6.76563 4.04763 6.5025 3.41238 6.5025 2.75ZM9 1.5025C8.83618 1.5025 8.67396 1.53477 8.5226 1.59746C8.37125 1.66016 8.23373 1.75205 8.11788 1.86789C8.00204 1.98373 7.91015 2.12125 7.84746 2.2726C7.78477 2.42396 7.7525 2.58618 7.7525 2.75C7.7525 2.91383 7.78477 3.07605 7.84746 3.2274C7.91015 3.37875 8.00204 3.51628 8.11788 3.63212C8.23373 3.74796 8.37125 3.83985 8.5226 3.90254C8.67396 3.96523 8.83618 3.9975 9 3.9975C9.33086 3.9975 9.64816 3.86607 9.88212 3.63212C10.1161 3.39817 10.2475 3.08086 10.2475 2.75C10.2475 2.41914 10.1161 2.10184 9.88212 1.86789C9.64816 1.63394 9.33086 1.5025 9 1.5025ZM12.75 3.375C12.75 3.12877 12.7985 2.88496 12.8927 2.65747C12.987 2.42999 13.1251 2.22329 13.2992 2.04918C13.4733 1.87507 13.68 1.73696 13.9075 1.64273C14.135 1.5485 14.3788 1.5 14.625 1.5C14.8712 1.5 15.115 1.5485 15.3425 1.64273C15.57 1.73696 15.7767 1.87507 15.9508 2.04918C16.1249 2.22329 16.263 2.42999 16.3573 2.65747C16.4515 2.88496 16.5 3.12877 16.5 3.375C16.5 3.87228 16.3025 4.3492 15.9508 4.70083C15.5992 5.05246 15.1223 5.25 14.625 5.25C14.1277 5.25 13.6508 5.05246 13.2992 4.70083C12.9475 4.3492 12.75 3.87228 12.75 3.375ZM14.625 2.75C14.4592 2.75 14.3003 2.81585 14.1831 2.93306C14.0658 3.05027 14 3.20924 14 3.375C14 3.54076 14.0658 3.69973 14.1831 3.81694C14.3003 3.93415 14.4592 4 14.625 4C14.7908 4 14.9497 3.93415 15.0669 3.81694C15.1842 3.69973 15.25 3.54076 15.25 3.375C15.25 3.20924 15.1842 3.05027 15.0669 2.93306C14.9497 2.81585 14.7908 2.75 14.625 2.75ZM3.375 1.5C2.87772 1.5 2.40081 1.69755 2.04918 2.04918C1.69754 2.40081 1.5 2.87772 1.5 3.375C1.5 3.87228 1.69754 4.3492 2.04918 4.70083C2.40081 5.05246 2.87772 5.25 3.375 5.25C3.87228 5.25 4.34919 5.05246 4.70083 4.70083C5.05246 4.3492 5.25 3.87228 5.25 3.375C5.25 2.87772 5.05246 2.40081 4.70083 2.04918C4.34919 1.69755 3.87228 1.5 3.375 1.5ZM2.75 3.375C2.75 3.20924 2.81585 3.05027 2.93306 2.93306C3.05027 2.81585 3.20924 2.75 3.375 2.75C3.54076 2.75 3.69973 2.81585 3.81694 2.93306C3.93415 3.05027 4 3.20924 4 3.375C4 3.54076 3.93415 3.69973 3.81694 3.81694C3.69973 3.93415 3.54076 4 3.375 4C3.20924 4 3.05027 3.93415 2.93306 3.81694C2.81585 3.69973 2.75 3.54076 2.75 3.375ZM4.335 6.5C4.11501 6.87982 3.99943 7.31108 4 7.75H1.5V10.875C1.4999 11.1859 1.57712 11.492 1.72471 11.7656C1.8723 12.0393 2.08563 12.272 2.34549 12.4427C2.60535 12.6134 2.90358 12.7168 3.21334 12.7436C3.52311 12.7704 3.83468 12.7198 4.12 12.5963C4.2125 13.01 4.3575 13.405 4.545 13.7738C4.07058 13.9653 3.55639 14.0374 3.04757 13.9838C2.53876 13.9302 2.05088 13.7525 1.6268 13.4663C1.20272 13.1801 0.8554 12.7941 0.615341 12.3423C0.375283 11.8905 0.24983 11.3866 0.25 10.875V7.75C0.25 7.41848 0.381696 7.10054 0.616117 6.86612C0.850537 6.6317 1.16848 6.5 1.5 6.5H4.335ZM13.455 13.7738C13.9294 13.9653 14.4436 14.0374 14.9524 13.9838C15.4612 13.9302 15.9491 13.7525 16.3732 13.4663C16.7973 13.1801 17.1446 12.7941 17.3847 12.3423C17.6247 11.8905 17.7502 11.3866 17.75 10.875V7.75C17.75 7.41848 17.6183 7.10054 17.3839 6.86612C17.1495 6.6317 16.8315 6.5 16.5 6.5H13.665C13.8775 6.8675 14 7.29375 14 7.75H16.5V10.875C16.5001 11.1859 16.4229 11.492 16.2753 11.7656C16.1277 12.0393 15.9144 12.272 15.6545 12.4427C15.3947 12.6134 15.0964 12.7168 14.7867 12.7436C14.4769 12.7704 14.1653 12.7198 13.88 12.5963C13.7863 13.01 13.6425 13.405 13.455 13.7738ZM6.5 6.49875C6.16848 6.49875 5.85054 6.63045 5.61612 6.86487C5.3817 7.09929 5.25 7.41723 5.25 7.74875V11.5C5.25 12.4946 5.64509 13.4484 6.34835 14.1517C7.05161 14.8549 8.00544 15.25 9 15.25C9.99456 15.25 10.9484 14.8549 11.6517 14.1517C12.3549 13.4484 12.75 12.4946 12.75 11.5V7.75C12.75 7.41848 12.6183 7.10054 12.3839 6.86612C12.1495 6.6317 11.8315 6.5 11.5 6.5H6.5V6.49875ZM6.5 7.74875H11.5V11.5C11.5 12.163 11.2366 12.7989 10.7678 13.2678C10.2989 13.7366 9.66304 14 9 14C8.33696 14 7.70107 13.7366 7.23223 13.2678C6.76339 12.7989 6.5 12.163 6.5 11.5V7.75V7.74875Z" fill="black"/>
</svg>
