<svg width="18" height="16" viewBox="0 0 18 16" fill="none" xmlns="http://www.w3.org/2000/svg">
<path d="M2.33344 13.5833V7.4375L1.5001 8.08333C1.30566 8.22222 1.09733 8.27778 0.875104 8.25C0.652882 8.22222 0.472327 8.11111 0.333438 7.91667C0.194549 7.72222 0.142327 7.51389 0.176771 7.29167C0.211215 7.06944 0.318993 6.88889 0.500104 6.75L7.97927 1.02083C8.13205 0.909722 8.29538 0.826389 8.46927 0.770833C8.64316 0.715278 8.8201 0.6875 9.0001 0.6875C9.18066 0.6875 9.35788 0.715278 9.53177 0.770833C9.70566 0.826389 9.86872 0.909722 10.0209 1.02083L17.5209 6.75C17.7015 6.88889 17.8057 7.06944 17.8334 7.29167C17.8612 7.51389 17.8057 7.72222 17.6668 7.91667C17.5279 8.09722 17.3473 8.20139 17.1251 8.22917C16.9029 8.25694 16.7015 8.20139 16.5209 8.0625L15.6668 7.4375V13.5833C15.6668 14.0417 15.5037 14.4342 15.1776 14.7608C14.8515 15.0875 14.459 15.2506 14.0001 15.25H4.0001C3.54177 15.25 3.14927 15.0867 2.8226 14.76C2.49594 14.4333 2.33288 14.0411 2.33344 13.5833ZM4.0001 13.5833H14.0001V6.16667L9.0001 2.35417L4.0001 6.16667V13.5833ZM5.66677 10.25C5.90288 10.25 6.10094 10.17 6.26094 10.01C6.42094 9.85 6.50066 9.65222 6.5001 9.41667C6.5001 9.18056 6.4201 8.9825 6.2601 8.8225C6.1001 8.6625 5.90233 8.58278 5.66677 8.58333C5.43066 8.58333 5.2326 8.66333 5.0726 8.82333C4.9126 8.98333 4.83288 9.18111 4.83344 9.41667C4.83344 9.65278 4.91344 9.85083 5.07344 10.0108C5.23344 10.1708 5.43122 10.2506 5.66677 10.25ZM9.0001 10.25C9.23622 10.25 9.43427 10.17 9.59427 10.01C9.75427 9.85 9.83399 9.65222 9.83344 9.41667C9.83344 9.18056 9.75344 8.9825 9.59344 8.8225C9.43344 8.6625 9.23566 8.58278 9.0001 8.58333C8.76399 8.58333 8.56594 8.66333 8.40594 8.82333C8.24594 8.98333 8.16622 9.18111 8.16677 9.41667C8.16677 9.65278 8.24677 9.85083 8.40677 10.0108C8.56677 10.1708 8.76455 10.2506 9.0001 10.25ZM12.3334 10.25C12.5695 10.25 12.7676 10.17 12.9276 10.01C13.0876 9.85 13.1673 9.65222 13.1668 9.41667C13.1668 9.18056 13.0868 8.9825 12.9268 8.8225C12.7668 8.6625 12.569 8.58278 12.3334 8.58333C12.0973 8.58333 11.8993 8.66333 11.7393 8.82333C11.5793 8.98333 11.4995 9.18111 11.5001 9.41667C11.5001 9.65278 11.5801 9.85083 11.7401 10.0108C11.9001 10.1708 12.0979 10.2506 12.3334 10.25Z" fill="black"/>
</svg>
