<svg width="16" height="18" viewBox="0 0 16 18" fill="none" xmlns="http://www.w3.org/2000/svg">
<path d="M10.4999 3.75V2.91667C10.4999 2.47464 10.3243 2.05072 10.0118 1.73816C9.6992 1.42559 9.27528 1.25 8.83325 1.25H7.16659C6.72456 1.25 6.30063 1.42559 5.98807 1.73816C5.67551 2.05072 5.49992 2.47464 5.49992 2.91667V3.75M10.4999 3.75H12.9999C13.4419 3.75 13.8659 3.92559 14.1784 4.23816C14.491 4.55072 14.6666 4.97464 14.6666 5.41667V13.75C14.6666 14.192 14.491 14.616 14.1784 14.9285C13.8659 15.2411 13.4419 15.4167 12.9999 15.4167H12.1666M10.4999 3.75H5.49992M5.49992 3.75H2.99992C2.55789 3.75 2.13397 3.92559 1.82141 4.23816C1.50885 4.55072 1.33325 4.97464 1.33325 5.41667V13.75C1.33325 14.192 1.50885 14.616 1.82141 14.9285C2.13397 15.2411 2.55789 15.4167 2.99992 15.4167H3.83325M12.1666 15.4167H3.83325M12.1666 15.4167V16.25M3.83325 15.4167V16.25M5.49992 7.08333V12.0833M10.4999 12.0833V7.08333" stroke="black" stroke-width="2" stroke-linecap="round" stroke-linejoin="round"/>
</svg>
