<svg width="14" height="14" viewBox="0 0 14 14" fill="none" xmlns="http://www.w3.org/2000/svg">
<path d="M7.67533 0.429397C8.15487 0.427557 8.63441 0.432377 9.11382 0.443855L9.2413 0.448455C9.3885 0.453712 9.53373 0.460283 9.70919 0.468169C10.4084 0.501026 10.8855 0.611426 11.3041 0.77374C11.7378 0.940655 12.1032 1.16671 12.4685 1.53208C12.8026 1.8604 13.0612 2.25753 13.2262 2.69588C13.3885 3.11448 13.4989 3.59223 13.5318 4.29143C13.5397 4.46623 13.5462 4.61211 13.5515 4.75931L13.5554 4.8868C13.5671 5.36598 13.5722 5.8453 13.5706 6.32463L13.5712 6.81486V7.67571C13.5728 8.15525 13.5678 8.6348 13.5561 9.1142L13.5522 9.24168C13.5469 9.38888 13.5403 9.53411 13.5324 9.70957C13.4996 10.4088 13.3879 10.8859 13.2262 11.3045C13.0617 11.7433 12.8031 12.1407 12.4685 12.4689C12.1399 12.803 11.7426 13.0615 11.3041 13.2266C10.8855 13.3889 10.4084 13.4993 9.70919 13.5322C9.53373 13.5401 9.3885 13.5466 9.2413 13.5519L9.11382 13.5558C8.63441 13.5675 8.15487 13.5725 7.67533 13.5709L7.1851 13.5716H6.3249C5.84536 13.5732 5.36582 13.5682 4.88642 13.5565L4.75893 13.5525C4.60293 13.5469 4.44697 13.5403 4.29104 13.5328C3.59184 13.5 3.11476 13.3883 2.6955 13.2266C2.25698 13.0619 1.85977 12.8033 1.5317 12.4689C1.19724 12.1405 0.938448 11.7431 0.773358 11.3045C0.611043 10.8859 0.500643 10.4088 0.467786 9.70957C0.460468 9.55364 0.453896 9.39768 0.448072 9.24168L0.444786 9.1142C0.432671 8.6348 0.427194 8.15526 0.428358 7.67571V6.32463C0.426524 5.84531 0.431343 5.36598 0.442815 4.8868L0.447415 4.75931C0.452672 4.61211 0.459243 4.46623 0.467129 4.29143C0.499986 3.59157 0.610386 3.11514 0.7727 2.69588C0.937888 2.25732 1.19719 1.86029 1.53236 1.53274C1.8602 1.19809 2.25716 0.93906 2.6955 0.77374C3.11476 0.611426 3.59119 0.501026 4.29104 0.468169L4.75893 0.448455L4.88642 0.445169C5.36559 0.43306 5.84491 0.427583 6.32424 0.42874L7.67533 0.429397ZM6.99979 3.71511C6.56443 3.70895 6.1322 3.78938 5.7282 3.95173C5.3242 4.11407 4.9565 4.35509 4.64646 4.66078C4.33642 4.96646 4.09022 5.33072 3.92218 5.73238C3.75414 6.13405 3.66761 6.5651 3.66761 7.0005C3.66761 7.43589 3.75414 7.86695 3.92218 8.26861C4.09022 8.67027 4.33642 9.03453 4.64646 9.34022C4.9565 9.64591 5.3242 9.88692 5.7282 10.0493C6.1322 10.2116 6.56443 10.292 6.99979 10.2859C7.87121 10.2859 8.70695 9.93971 9.32314 9.32352C9.93933 8.70733 10.2855 7.87159 10.2855 7.00017C10.2855 6.12874 9.93933 5.29301 9.32314 4.67682C8.70695 4.06063 7.87121 3.71511 6.99979 3.71511ZM6.99979 5.0294C7.26166 5.02457 7.52187 5.07198 7.76522 5.16885C8.00857 5.26572 8.23018 5.41011 8.4171 5.59358C8.60402 5.77706 8.7525 5.99594 8.85388 6.23745C8.95525 6.47896 9.00749 6.73824 9.00753 7.00016C9.00758 7.26208 8.95543 7.52139 8.85413 7.76293C8.75284 8.00447 8.60443 8.2234 8.41757 8.40694C8.23071 8.59048 8.00915 8.73494 7.76583 8.83189C7.52252 8.92884 7.26232 8.97634 7.00044 8.9716C6.47759 8.9716 5.97615 8.7639 5.60643 8.39418C5.23672 8.02447 5.02902 7.52302 5.02902 7.00017C5.02902 6.47731 5.23672 5.97587 5.60643 5.60616C5.97615 5.23644 6.47759 5.02874 7.00044 5.02874L6.99979 5.0294ZM10.4498 2.7294C10.2378 2.73788 10.0373 2.82807 9.8903 2.98106C9.7433 3.13406 9.66121 3.338 9.66121 3.55017C9.66121 3.76234 9.7433 3.96628 9.8903 4.11927C10.0373 4.27227 10.2378 4.36246 10.4498 4.37094C10.6676 4.37094 10.8766 4.2844 11.0306 4.13035C11.1847 3.9763 11.2712 3.76737 11.2712 3.54951C11.2712 3.33166 11.1847 3.12272 11.0306 2.96867C10.8766 2.81463 10.6676 2.72808 10.4498 2.72808V2.7294Z" fill="white"/>
</svg>
