<svg width="22" height="21" viewBox="0 0 22 21" fill="none" xmlns="http://www.w3.org/2000/svg">
<path d="M7.24228 6.33992L0.862278 7.26492L0.749278 7.28792C0.578217 7.33333 0.422273 7.42333 0.29737 7.54872C0.172467 7.67412 0.0830811 7.83041 0.0383398 8.00165C-0.00640156 8.17289 -0.0048951 8.35293 0.0427052 8.5234C0.0903056 8.69386 0.182294 8.84864 0.309278 8.97192L4.93128 13.4709L3.84128 19.8259L3.82828 19.9359C3.81781 20.1128 3.85454 20.2894 3.93473 20.4474C4.01491 20.6055 4.13566 20.7394 4.28461 20.8354C4.43357 20.9315 4.60537 20.9862 4.78243 20.994C4.95949 21.0018 5.13544 20.9625 5.29228 20.8799L10.9983 17.8799L16.6913 20.8799L16.7913 20.9259C16.9563 20.9909 17.1357 21.0109 17.311 20.9837C17.4863 20.9565 17.6513 20.8832 17.7889 20.7712C17.9265 20.6592 18.0318 20.5127 18.0941 20.3466C18.1564 20.1804 18.1734 20.0008 18.1433 19.8259L17.0523 13.4709L21.6763 8.97092L21.7543 8.88592C21.8657 8.74869 21.9388 8.58438 21.966 8.40972C21.9932 8.23506 21.9737 8.0563 21.9094 7.89165C21.845 7.72701 21.7382 7.58235 21.5998 7.47244C21.4613 7.36252 21.2962 7.29126 21.1213 7.26592L14.7413 6.33992L11.8893 0.559923C11.8068 0.392457 11.679 0.251438 11.5205 0.152827C11.3619 0.0542165 11.179 0.00195313 10.9923 0.00195312C10.8056 0.00195313 10.6226 0.0542165 10.4641 0.152827C10.3056 0.251438 10.1778 0.392457 10.0953 0.559923L7.24228 6.33992Z" fill="#FAD618"/>
</svg>
