<svg width="14" height="13" viewBox="0 0 14 13" fill="none" xmlns="http://www.w3.org/2000/svg">
<path fill-rule="evenodd" clip-rule="evenodd" d="M12.1104 1.02543C12.2728 0.957085 12.4506 0.933512 12.6252 0.957168C12.7997 0.980824 12.9648 1.05084 13.1032 1.15994C13.2415 1.26904 13.3481 1.41322 13.4118 1.57749C13.4755 1.74175 13.494 1.92009 13.4655 2.09395L11.975 11.1343C11.8305 12.0063 10.8737 12.5064 10.0739 12.072C9.40496 11.7086 8.41136 11.1487 7.51765 10.5645C7.07079 10.2721 5.70196 9.33566 5.87019 8.66932C6.01476 8.09958 8.31476 5.9586 9.62905 4.68572C10.1449 4.18563 9.90965 3.89715 9.30048 4.35715C7.78708 5.49926 5.35894 7.23609 4.55591 7.72501C3.84751 8.15609 3.47819 8.22969 3.03659 8.15609C2.23094 8.02203 1.48376 7.81438 0.873935 7.56138C0.0498783 7.21966 0.089964 6.08675 0.873278 5.75686L12.1104 1.02543Z" fill="white"/>
</svg>
