<svg width="34" height="28" viewBox="0 0 34 28" fill="none" xmlns="http://www.w3.org/2000/svg">
<path d="M30.8484 23.5133C33.9934 20.1 33.6768 15.7166 33.6668 15.6666V2.33329C33.6668 1.89127 33.4912 1.46734 33.1786 1.15478C32.8661 0.842221 32.4421 0.666626 32.0001 0.666626H22.0001C20.1618 0.666626 18.6668 2.16163 18.6668 3.99996V15.6666C18.6668 16.1087 18.8424 16.5326 19.1549 16.8451C19.4675 17.1577 19.8914 17.3333 20.3334 17.3333H25.4634C25.4282 18.1573 25.182 18.9584 24.7484 19.66C23.9018 20.995 22.3068 21.9066 20.0051 22.3666L18.6668 22.6333V27.3333H20.3334C24.9718 27.3333 28.5101 26.0483 30.8484 23.5133ZM12.5034 23.5133C15.6501 20.1 15.3318 15.7166 15.3218 15.6666V2.33329C15.3218 1.89127 15.1462 1.46734 14.8336 1.15478C14.5211 0.842221 14.0971 0.666626 13.6551 0.666626H3.65511C1.81678 0.666626 0.321777 2.16163 0.321777 3.99996V15.6666C0.321777 16.1087 0.497372 16.5326 0.809933 16.8451C1.12249 17.1577 1.54642 17.3333 1.98844 17.3333H7.11844C7.08323 18.1573 6.83704 18.9584 6.40344 19.66C5.55678 20.995 3.96178 21.9066 1.66011 22.3666L0.321777 22.6333V27.3333H1.98844C6.62678 27.3333 10.1651 26.0483 12.5034 23.5133Z" fill="black"/>
</svg>
