<svg width="18" height="18" viewBox="0 0 18 18" fill="none" xmlns="http://www.w3.org/2000/svg">
<g clip-path="url(#clip0_273_332)">
<path fill-rule="evenodd" clip-rule="evenodd" d="M3.75 6.75C3.75 5.35761 4.30312 4.02226 5.28769 3.03769C6.27226 2.05312 7.60761 1.5 9 1.5C10.3924 1.5 11.7277 2.05312 12.7123 3.03769C13.6969 4.02226 14.25 5.35761 14.25 6.75V7.52625C15.522 7.7085 16.5 8.80275 16.5 10.125V10.3125C16.4999 10.6377 16.4347 10.9596 16.3083 11.2593C16.1819 11.5589 15.9968 11.8302 15.7639 12.0572C15.5311 12.2842 15.2551 12.4623 14.9523 12.581C14.6496 12.6998 14.3261 12.7567 14.001 12.7485C13.446 14.3385 12.0345 15.4103 10.5113 15.6818C10.1588 15.8108 9.74175 15.75 9.375 15.75C9.07663 15.75 8.79048 15.6315 8.5795 15.4205C8.36853 15.2095 8.25 14.9234 8.25 14.625C8.25 14.3266 8.36853 14.0405 8.5795 13.8295C8.79048 13.6185 9.07663 13.5 9.375 13.5H10.125C10.3011 13.5 10.4748 13.5413 10.632 13.6206C10.7892 13.6999 10.9256 13.8151 11.0302 13.9567C12.0022 13.494 12.75 12.5168 12.75 11.25V6.75C12.75 5.75544 12.3549 4.80161 11.6517 4.09835C10.9484 3.39509 9.99456 3 9 3C8.00544 3 7.05161 3.39509 6.34835 4.09835C5.64509 4.80161 5.25 5.75544 5.25 6.75V11.4375C5.25 11.7856 5.11172 12.1194 4.86558 12.3656C4.61944 12.6117 4.2856 12.75 3.9375 12.75C3.29103 12.75 2.67105 12.4932 2.21393 12.0361C1.75681 11.579 1.5 10.959 1.5 10.3125V10.125C1.49984 9.49366 1.72722 8.88341 2.14047 8.40612C2.55371 7.92882 3.12514 7.61644 3.75 7.52625V6.75ZM3.75 9.06375C3.53057 9.14133 3.3406 9.28506 3.20627 9.47513C3.07195 9.6652 2.99988 9.89226 3 10.125V10.3125C3 10.7662 3.3225 11.145 3.75 11.2313V9.06375ZM14.25 9.06375V11.2313C14.6775 11.1442 15 10.7662 15 10.3125V10.125C15.0001 9.89226 14.9281 9.6652 14.7937 9.47513C14.6594 9.28506 14.4694 9.14133 14.25 9.06375Z" fill="black"/>
</g>
<defs>
<clipPath id="clip0_273_332">
<rect width="18" height="18" fill="white"/>
</clipPath>
</defs>
</svg>
