<svg width="16" height="12" viewBox="0 0 16 12" fill="none" xmlns="http://www.w3.org/2000/svg">
<path d="M13.4657 1.06616C12.4603 0.612736 11.3826 0.277593 10.2556 0.0870217C10.2456 0.0850949 10.2352 0.0863366 10.2259 0.0905751C10.2166 0.0948136 10.2088 0.101839 10.2037 0.110679C10.0657 0.353165 9.91192 0.66925 9.80414 0.918965C8.60886 0.740377 7.39368 0.740377 6.1984 0.918965C6.07836 0.642216 5.943 0.372369 5.79294 0.110679C5.78786 0.10173 5.78016 0.0945458 5.77089 0.0900841C5.76161 0.0856223 5.7512 0.0840954 5.74103 0.0857073C4.61469 0.276279 3.53697 0.611422 2.53089 1.06551C2.52223 1.06914 2.51489 1.07533 2.50986 1.08325C0.464831 4.08968 -0.0957121 7.02185 0.179631 9.91722C0.180397 9.92431 0.182598 9.93117 0.1861 9.93739C0.189602 9.9436 0.194332 9.94904 0.200002 9.95337C1.39363 10.8224 2.72497 11.4844 4.13826 11.9117C4.14811 11.9147 4.15865 11.9147 4.1685 11.9116C4.17834 11.9086 4.18704 11.9026 4.19346 11.8946C4.49758 11.4878 4.76708 11.0563 4.99912 10.6046C5.00234 10.5984 5.00419 10.5916 5.00456 10.5847C5.00493 10.5777 5.00379 10.5708 5.00124 10.5643C4.99868 10.5578 4.99477 10.5519 4.98975 10.5471C4.98474 10.5423 4.97874 10.5386 4.97217 10.5363C4.54766 10.3764 4.13634 10.1835 3.742 9.95928C3.73492 9.95523 3.72895 9.94949 3.72463 9.94257C3.72031 9.93565 3.71777 9.92777 3.71725 9.91962C3.71673 9.91148 3.71824 9.90334 3.72164 9.89592C3.72504 9.88851 3.73023 9.88205 3.73675 9.87714C3.81955 9.81602 3.90235 9.75228 3.9812 9.68854C3.9883 9.6828 3.99685 9.67915 4.0059 9.67799C4.01495 9.67683 4.02414 9.67821 4.03246 9.68196C6.61306 10.8412 9.40789 10.8412 11.9583 9.68196C11.9666 9.67799 11.9759 9.67643 11.9851 9.67748C11.9942 9.67852 12.0029 9.68213 12.0102 9.68788C12.089 9.75228 12.1712 9.81602 12.2546 9.87714C12.2612 9.88195 12.2665 9.88832 12.27 9.89567C12.2735 9.90302 12.2751 9.91113 12.2747 9.91927C12.2744 9.92741 12.272 9.93532 12.2678 9.9423C12.2636 9.94929 12.2577 9.95512 12.2507 9.95928C11.8577 10.1853 11.449 10.3766 11.0199 10.5356C11.0133 10.538 11.0073 10.5418 11.0022 10.5467C10.9972 10.5516 10.9933 10.5575 10.9908 10.564C10.9882 10.5705 10.9871 10.5775 10.9875 10.5845C10.9878 10.5915 10.9897 10.5984 10.9929 10.6046C11.2295 11.0561 11.5002 11.4858 11.7979 11.8939C11.8041 11.9023 11.8127 11.9085 11.8226 11.9118C11.8325 11.9151 11.8431 11.9153 11.8531 11.9123C13.2688 11.4862 14.6023 10.8239 15.7973 9.95337C15.8031 9.94929 15.808 9.94401 15.8116 9.93789C15.8153 9.93177 15.8175 9.92495 15.8183 9.91788C16.1469 6.57039 15.2676 3.66188 13.4861 1.08456C13.4817 1.07619 13.4745 1.06966 13.4657 1.06616ZM5.38486 8.15411C4.60812 8.15411 3.9674 7.45162 3.9674 6.59011C3.9674 5.72794 4.59563 5.02611 5.38486 5.02611C6.18 5.02611 6.8148 5.73385 6.80232 6.59011C6.80232 7.45228 6.17409 8.15411 5.38486 8.15411ZM10.6256 8.15411C9.84817 8.15411 9.20812 7.45162 9.20812 6.59011C9.20812 5.72794 9.83569 5.02611 10.6256 5.02611C11.4207 5.02611 12.0555 5.73385 12.043 6.59011C12.043 7.45228 11.4214 8.15411 10.6256 8.15411Z" fill="white"/>
</svg>
