<svg width="10" height="11" viewBox="0 0 10 11" fill="none" xmlns="http://www.w3.org/2000/svg">
<path fill-rule="evenodd" clip-rule="evenodd" d="M1.15446 1.05964C1.16984 0.929301 1.21544 0.804359 1.28764 0.694761C1.35983 0.585163 1.45662 0.493938 1.5703 0.428352C1.68397 0.362765 1.81139 0.32463 1.94241 0.316984C2.07343 0.309337 2.20442 0.332391 2.32495 0.384308C2.9343 0.644799 4.29987 1.2639 6.03266 2.26398C7.76602 3.26464 8.98528 4.13849 9.51487 4.53496C9.967 4.87406 9.96815 5.54652 9.51544 5.88677C8.99102 6.28095 7.78667 7.14332 6.03266 8.1566C4.27692 9.16988 2.92741 9.78152 2.3238 10.0386C1.80397 10.2606 1.22216 9.92382 1.15446 9.36324C1.07528 8.708 0.927246 7.22021 0.927246 5.21087C0.927246 3.20267 1.07471 1.71546 1.15446 1.05964Z" fill="white"/>
</svg>
